<svg xmlns="http://www.w3.org/2000/svg" viewBox="0 0 32 32">
  <rect width="32" height="32" rx="7" fill="#a3e635"/>
  <g fill="none" stroke="#0a1400" stroke-width="2.5" stroke-linecap="round" stroke-linejoin="round">
    <path d="M19.2 19.2 12.8 12.8"/>
    <path d="M24.9 28.6a2.67 2.67 0 1 1-3.77-3.77l-2.36 2.36a2.67 2.67 0 1 1-3.77-3.77l8.48-8.48a2.67 2.67 0 1 1 3.77 3.77l-2.36 2.36a2.67 2.67 0 1 1 3.77 3.77z"/>
    <path d="m28.7 28.7-1.87-1.87"/>
    <path d="M5.2 5.2 3.33 3.33"/>
    <path d="M8.54 17a2.67 2.67 0 1 1-3.77-3.77l2.36-2.36a2.67 2.67 0 1 1-3.77-3.77l3.77-3.77a2.67 2.67 0 1 1 3.77 3.77l2.36-2.36a2.67 2.67 0 1 1 3.77 3.77z"/>
  </g>
</svg>
